<svg xmlns="http://www.w3.org/2000/svg" viewBox="0 0 780 180" role="img" aria-labelledby="title">
  <title id="title">ProDeals.lk — Better deals. Closer to home.</title>
  <rect x="10" y="10" width="160" height="160" rx="40" fill="#102A5C"/>
  <path fill="#fff" d="M47 146V34h49c27.8 0 46.4 17.2 46.4 43.7 0 26.2-18.6 43.6-46.4 43.6H76V146H47Zm29-83.7v30.6h18.6c12.9 0 21.3-5.6 21.3-15.3 0-9.8-8.4-15.3-21.3-15.3H76Z"/>
  <path fill="#F6C65B" d="m129.2 22.8 7.2 18 18 7.2-18 7.2-7.2 18-7.2-18-18-7.2 18-7.2 7.2-18Z"/>
  <text x="205" y="95" fill="#102A5C" font-family="Arial, Helvetica, sans-serif" font-size="76" font-weight="800" letter-spacing="-5">ProDeals</text>
  <text x="554" y="95" fill="#0F766E" font-family="Arial, Helvetica, sans-serif" font-size="76" font-weight="800" letter-spacing="-5">.lk</text>
  <text x="208" y="133" fill="#586A86" font-family="Arial, Helvetica, sans-serif" font-size="20" font-weight="700" letter-spacing="2">BETTER DEALS. CLOSER TO HOME.</text>
</svg>
